<?xml version="1.0" encoding="utf-8"?>
<!-- Generator: Adobe Illustrator 26.0.0, SVG Export Plug-In . SVG Version: 6.00 Build 0)  -->
<svg version="1.1" id="Layer_1" xmlns="http://www.w3.org/2000/svg" xmlns:xlink="http://www.w3.org/1999/xlink" x="0px" y="0px"
	 viewBox="0 0 11000 11000" enable-background="new 0 0 11000 11000" xml:space="preserve">
<g id="Logo---Gradient1">
	
		<linearGradient id="SVGID_1_" gradientUnits="userSpaceOnUse" x1="1490.0547" y1="7549.3501" x2="1491.0547" y2="7549.3501" gradientTransform="matrix(-2208.79 2523.3396 2523.3396 2208.79 -15751033 -20431390)">
		<stop  offset="0" style="stop-color:#545DFA"/>
		<stop  offset="0.57" style="stop-color:#4A8BFD"/>
		<stop  offset="1" style="stop-color:#45A0FF"/>
	</linearGradient>
	<path fill="url(#SVGID_1_)" d="M5359.331,214.028c8.378,184.191,22.826,363.837,43.939,542.912
		c61.002,517.471,183.425,1020.874,345.844,1515.118c331.519,1008.804,815.007,1949.187,1300.942,2888.476
		c367.326,710.03,742.596,1416.319,1037.948,2160.872c197.246,497.237,352.399,1006.22,414.875,1539.717
		c35.029,299.121,42.631,598.799,15.573,899.516c-5.298,58.877-28.324,79.491-79.316,94.894
		c-528.72,159.675-1056.768,321.547-1585.206,482.153c-483.238,146.868-967.022,291.964-1449.645,440.823
		c-48.901,15.083-73.13,9.019-100.928-33.965C4793.499,9956.177,4272.43,9174.853,3812.49,8355.331
		c-351.187-625.749-665.432-1268.639-900.285-1948.054c-168.234-486.7-290.601-984.197-362.982-1494.816
		c-96.509-680.875-93.536-1364.018-70.709-2048.785c17.332-520.002,49.981-1039.717,42.243-1560.274
		c-1.222-82.035,20.007-119.107,100.488-146.681c895.413-306.785,1789.282-618.082,2683.624-927.986
		c15.448-5.356,31.625-8.605,54.468-14.71"/>
	
		<linearGradient id="SVGID_00000102516526757264597500000014489863777383808428_" gradientUnits="userSpaceOnUse" x1="1490.4585" y1="7553.5381" x2="1491.4585" y2="7553.5381" gradientTransform="matrix(2850.7742 0 0 -5549.2466 -4243332.5 41919448)">
		<stop  offset="0" style="stop-color:#545DFA"/>
		<stop  offset="1" style="stop-color:#8253FA"/>
	</linearGradient>
	<path fill="url(#SVGID_00000102516526757264597500000014489863777383808428_)" d="M7668.417,5777.292
		c-184.004-355.389-367.433-707.332-548.75-1060.36c-351.339-684.063-692.072-1372.978-964.789-2093.413
		c-219.81-580.682-388.406-1174.899-475.355-1790.345c-24.862-175.994-32.928-354.338-49.787-531.499
		c-5.97-62.742,1.387-90.152,78.215-63.441c665.965,231.557,1333.314,459.142,2000.161,688.155
		c233.642,80.241,466.243,163.647,701.139,240.003c56.714,18.434,70.412,44.438,69.614,100.188
		c-9.655,673.464-34.663,1346.129-114.685,2015.373c-100.792,842.988-299.949,1660.236-654.578,2435.3
		c-9.001,19.679-11.944,43.678-41.182,60.04"/>
	
		<linearGradient id="SVGID_00000125592309270799956540000004783808498568627860_" gradientUnits="userSpaceOnUse" x1="1494.839" y1="7553.8472" x2="1495.839" y2="7553.8472" gradientTransform="matrix(1144.311 -2509.2444 -3178.7134 -1449.6138 22303856 14712760)">
		<stop  offset="0" style="stop-color:#45A0FF"/>
		<stop  offset="1" style="stop-color:#A373FF"/>
	</linearGradient>
	<path fill="url(#SVGID_00000125592309270799956540000004783808498568627860_)" d="M4925.976,10658.613
		c-119.775-14.958-224.01-75.241-333.82-117.829c-644.28-249.884-1286.691-504.593-1931.259-753.725
		c-66.152-25.57-81.508-56.685-70.583-121.659c85.791-510.303,210.628-1010.448,385.672-1497.602
		c55.851-155.434,111.562-311.145,187.288-471.415c98.144,187.678,188.568,365.338,283.189,540.734
		c434.202,804.86,932.579,1570.46,1431.252,2335.865c17.852,27.399,42.543,51.48,47.121,86.289l1.145-0.659H4925.976z"/>
</g>
</svg>
