<?xml version="1.0" encoding="utf-8"?>
<!-- Generator: Adobe Illustrator 26.0.0, SVG Export Plug-In . SVG Version: 6.00 Build 0)  -->
<svg version="1.1" id="Layer_1" xmlns="http://www.w3.org/2000/svg" xmlns:xlink="http://www.w3.org/1999/xlink" x="0px" y="0px"
	 viewBox="0 0 11000 11000" enable-background="new 0 0 11000 11000" xml:space="preserve">
<path fill="#45A0FF" d="M5359.318,214.011c8.379,184.191,22.827,363.837,43.94,542.912
	c61.002,517.471,183.424,1020.874,345.843,1515.118c331.518,1008.804,815.006,1949.187,1300.942,2888.476
	c367.326,710.03,742.597,1416.319,1037.948,2160.872c197.248,497.236,352.4,1006.22,414.875,1539.717
	c35.028,299.121,42.63,598.799,15.573,899.517c-5.299,58.876-28.326,79.491-79.317,94.894
	c-528.72,159.675-1056.768,321.546-1585.207,482.152c-483.239,146.868-967.022,291.965-1449.646,440.824
	c-48.901,15.082-73.131,9.018-100.927-33.965c-509.859-788.368-1030.928-1569.691-1490.868-2389.213
	c-351.187-625.75-665.433-1268.64-900.284-1948.054c-168.234-486.7-290.6-984.197-362.981-1494.816
	c-96.509-680.875-93.535-1364.018-70.709-2048.785c17.332-520.002,49.981-1039.717,42.242-1560.274
	c-1.221-82.035,20.007-119.107,100.488-146.681c895.413-306.785,1789.281-618.082,2683.624-927.986
	c15.447-5.356,31.624-8.605,54.467-14.71"/>
<path fill="#8253FA" d="M7668.404,5777.275c-184.003-355.389-367.433-707.332-548.75-1060.36
	c-351.339-684.063-692.073-1372.978-964.787-2093.413c-219.811-580.682-388.407-1174.899-475.355-1790.345
	c-24.863-175.994-32.927-354.338-49.787-531.499c-5.97-62.742,1.386-90.152,78.214-63.441
	C6373.903,469.776,7041.252,697.36,7708.1,926.374c233.642,80.241,466.244,163.647,701.138,240.003
	c56.713,18.434,70.411,44.438,69.613,100.188c-9.654,673.464-34.663,1346.129-114.685,2015.373
	c-100.793,842.988-299.949,1660.236-654.579,2435.3c-9.001,19.679-11.942,43.678-41.183,60.04"/>
<path fill="#A373FF" d="M4925.986,10658.597c-119.775-14.959-224.01-75.241-333.819-117.829
	c-644.28-249.885-1286.692-504.594-1931.26-753.725c-66.152-25.571-81.508-56.685-70.584-121.66
	c85.791-510.302,210.629-1010.448,385.672-1497.601c55.851-155.434,111.562-311.145,187.288-471.415
	c98.146,187.678,188.567,365.338,283.19,540.733c434.201,804.86,932.579,1570.46,1431.252,2335.865
	c17.853,27.399,42.543,51.48,47.121,86.289l1.144-0.659L4925.986,10658.597z"/>
</svg>
