<?xml version="1.0" encoding="utf-8"?>
<!-- Generator: Adobe Illustrator 26.0.0, SVG Export Plug-In . SVG Version: 6.00 Build 0)  -->
<svg version="1.1" id="Layer_1" xmlns="http://www.w3.org/2000/svg" xmlns:xlink="http://www.w3.org/1999/xlink" x="0px" y="0px"
	 viewBox="0 0 14145.261 4223.936" enable-background="new 0 0 14145.261 4223.936" xml:space="preserve">
<g id="Logo---Gradient1">
	
		<linearGradient id="SVGID_1_" gradientUnits="userSpaceOnUse" x1="4121.6074" y1="4568.7944" x2="4122.0073" y2="4568.7944" gradientTransform="matrix(-2208.79 2523.3396 2523.3396 2208.79 -2422913.5 -20490430)">
		<stop  offset="0" style="stop-color:#545DFA"/>
		<stop  offset="0.57" style="stop-color:#4A8BFD"/>
		<stop  offset="1" style="stop-color:#45A0FF"/>
	</linearGradient>
	<path fill="url(#SVGID_1_)" d="M1156.308,0.001c3.347,73.592,9.12,145.368,17.556,216.916
		c24.373,206.751,73.286,407.882,138.179,605.353c132.456,403.059,325.629,778.782,519.781,1154.067
		c146.762,283.687,296.698,565.879,414.704,863.359c78.808,198.667,140.798,402.027,165.76,615.181
		c13.995,119.511,17.033,239.245,6.222,359.394c-2.117,23.524-11.317,31.76-31.69,37.914
		c-211.246,63.797-422.223,128.471-633.356,192.64c-193.074,58.68-386.366,116.652-579.194,176.128
		c-19.538,6.026-29.219,3.603-40.325-13.57c-203.71-314.986-411.899-627.157-595.664-954.591
		c-140.314-250.013-265.868-506.875-359.701-778.329c-67.216-194.457-116.107-393.228-145.026-597.242
		c-38.559-272.038-37.371-544.982-28.251-818.575c6.925-207.763,19.97-415.41,16.878-623.395
		c-0.488-32.776,7.994-47.588,40.149-58.605c357.755-122.573,714.893-246.95,1072.22-370.769c6.172-2.14,12.635-3.438,21.762-5.877"
		/>
	
		<linearGradient id="SVGID_00000156570758753621464160000017437146766484266119_" gradientUnits="userSpaceOnUse" x1="4117.8003" y1="4574.4229" x2="4118.2002" y2="4574.4229" gradientTransform="matrix(2850.7742 0 0 -5549.2466 -11737656 25385714)">
		<stop  offset="0" style="stop-color:#545DFA"/>
		<stop  offset="1" style="stop-color:#8253FA"/>
	</linearGradient>
	<path fill="url(#SVGID_00000156570758753621464160000017437146766484266119_)" d="M2078.885,2222.758
		c-73.517-141.993-146.805-282.609-219.249-423.658c-140.375-273.312-276.512-548.562-385.473-836.406
		c-87.823-232.007-155.185-469.421-189.924-715.318c-9.934-70.317-13.156-141.573-19.892-212.356
		c-2.385-25.068,0.554-36.019,31.25-25.347c266.081,92.517,532.715,183.446,799.148,274.947
		c93.35,32.06,186.284,65.384,280.134,95.891c22.66,7.365,28.133,17.755,27.814,40.029
		c-3.858,269.077-13.849,537.835-45.821,805.226c-40.271,336.809-119.842,663.334-261.531,973.004
		c-3.596,7.863-4.772,17.451-16.454,23.989"/>
	
		<linearGradient id="SVGID_00000047747063408965853780000006834847361978012817_" gradientUnits="userSpaceOnUse" x1="4125.188" y1="4576.813" x2="4125.5874" y2="4576.813" gradientTransform="matrix(1144.311 -2509.2444 -3178.7134 -1449.6138 9828053 16990298)">
		<stop  offset="0" style="stop-color:#45A0FF"/>
		<stop  offset="1" style="stop-color:#A373FF"/>
	</linearGradient>
	<path fill="url(#SVGID_00000047747063408965853780000006834847361978012817_)" d="M983.165,4173.05
		c-47.855-5.977-89.501-30.062-133.375-47.078c-257.417-99.839-514.087-201.606-771.619-301.145
		c-26.43-10.217-32.566-22.648-28.201-48.608c34.277-203.887,84.155-403.716,154.092-598.354
		c22.315-62.102,44.574-124.315,74.829-188.35c39.213,74.985,75.341,145.968,113.146,216.046
		c173.482,321.575,372.604,627.464,571.845,933.276c7.132,10.947,16.998,20.568,18.827,34.476l0.457-0.264L983.165,4173.05z"/>
</g>
<g>
	<path d="M5071.764,1615.825c0,337.943-271.877,609.822-622.525,609.822h-266.798v559.003h-406.547V1006.003h673.345
		C4799.887,1006.003,5071.764,1277.882,5071.764,1615.825z M4665.217,1615.825c0-129.587-91.474-228.683-215.978-228.683h-266.798
		v457.366h266.798C4573.744,1844.508,4665.217,1745.411,4665.217,1615.825z"/>
	<path d="M5122.571,2149.419c0-378.597,299.829-670.803,673.345-670.803s673.345,292.206,673.345,670.803
		c0,378.598-299.83,670.805-673.345,670.805S5122.571,2528.017,5122.571,2149.419z M6088.123,2149.419
		c0-180.405-127.047-299.828-292.207-299.828c-165.16,0-292.205,119.423-292.205,299.828c0,180.406,127.045,299.829,292.205,299.829
		C5961.076,2449.248,6088.123,2329.825,6088.123,2149.419z"/>
	<path d="M6685.223,929.775h381.138V2784.65h-381.138V929.775z"/>
	<path d="M8552.786,1514.188l-434.499,1232.347c-142.292,404.008-368.432,564.086-724.163,546.3v-355.729
		c177.866,0,261.715-55.901,317.614-210.898l-505.642-1212.02h419.254l282.041,777.523l238.846-777.523H8552.786z"/>
	<path d="M9912.174,2004.586v780.063h-381.138v-724.163c0-157.538-99.098-231.224-221.063-231.224
		c-139.749,0-236.304,81.31-236.304,261.715v693.673h-381.138V1006.003h381.138v627.608
		c68.605-94.014,195.648-154.996,363.352-154.996C9693.653,1478.615,9912.174,1661.561,9912.174,2004.586z"/>
	<path d="M11477.357,1514.188V2784.65h-381.138v-119.423c-83.85,96.555-208.357,154.997-378.599,154.997
		c-332.859,0-607.279-292.207-607.279-670.805c0-378.597,274.42-670.803,607.279-670.803c170.241,0,294.749,58.441,378.599,154.996
		v-119.423H11477.357z M11096.22,2149.419c0-190.569-127.047-309.992-302.37-309.992c-175.322,0-302.37,119.423-302.37,309.992
		c0,190.57,127.048,309.993,302.37,309.993C10969.173,2459.412,11096.22,2339.989,11096.22,2149.419z"/>
	<path d="M12735.07,2428.92v355.73H11718.7v-254.093l480.235-660.64h-454.824v-355.729h965.548v254.092l-480.231,660.64H12735.07z"
		/>
	<path d="M13532.897,2479.739c104.179,0,193.113-40.655,243.932-96.556l304.908,175.324
		c-124.505,172.783-312.532,261.716-553.922,261.716c-434.498,0-703.833-292.207-703.833-670.805
		c0-378.597,274.42-670.803,675.884-670.803c370.975,0,645.395,287.124,645.395,670.803c0,53.36-5.081,104.178-15.244,152.455
		h-902.028C13276.264,2434.003,13393.148,2479.739,13532.897,2479.739z M13766.662,2017.291
		c-40.651-147.374-154.993-200.733-269.335-200.733c-144.834,0-241.389,71.146-276.963,200.733H13766.662z"/>
</g>
</svg>
